<svg xmlns="http://www.w3.org/2000/svg" version="1.1" xmlns:xlink="http://www.w3.org/1999/xlink" xmlns:svgjs="http://svgjs.dev/svgjs" width="1500" height="1500" viewBox="0 0 1500 1500"><rect width="1500" height="1500" fill="#ffffff"></rect><g transform="matrix(0.6666666666666666,0,0,0.6666666666666666,249.39393939393938,438.5856950067477)"><svg viewBox="0 0 396 247" data-background-color="#c2a6c3" preserveAspectRatio="xMidYMid meet" height="935" width="1500" xmlns="http://www.w3.org/2000/svg" xmlns:xlink="http://www.w3.org/1999/xlink"><g id="tight-bounds" transform="matrix(1,0,0,1,0.2400000000000091,-0.09999999999999432)"><svg viewBox="0 0 395.52 247.2" height="247.2" width="395.52"><g><svg></svg></g><g><svg viewBox="0 0 395.52 247.2" height="247.2" width="395.52"><mask id="79bcacbf-7fc0-4a59-a81f-a43317828415"><rect width="395.52" height="247.2" fill="white"></rect><g transform="matrix(1,0,0,1,0,49.44754809160304)" id="clone"><svg viewBox="0 0 395.52 148.3049038167939" height="148.3049038167939" width="395.52"><g><svg viewBox="0 0 395.52 148.3049038167939" height="148.3049038167939" width="395.52"><g><svg viewBox="0 0 395.52 148.3049038167939" height="148.3049038167939" width="395.52"><g><svg viewBox="0 0 395.52 148.3049038167939" height="148.3049038167939" width="395.52"><g id="SvgjsG1418"><svg viewBox="0 0 395.52 148.3049038167939" height="148.3049038167939" width="395.52" id="SvgjsSvg1417"><g><svg viewBox="0 0 395.52 148.3049038167939" height="148.3049038167939" width="395.52"><g transform="matrix(1,0,0,1,0,0)"><svg width="395.52" viewBox="-1.5 -44.7 164.74 62.400000000000006" height="148.3049038167939" data-palette-color="#f3f3f3"><path d="M19.45-35.65Q25.45-35.65 28.6-32.27 31.75-28.9 31.75-23.15L31.75-23.15Q31.75-16.8 27.78-11.48 23.8-6.15 17.53-2.95 11.25 0.25 4.7 0.65L4.7 0.65 4.7-27.05 9.35-28.75 9.35-2.05Q14.3-3.35 18.15-6.28 22-9.2 24.18-13.35 26.35-17.5 26.35-22.3L26.35-22.3Q26.35-25.05 25.4-27.4 24.45-29.75 22.43-31.25 20.4-32.75 17.3-32.75L17.3-32.75Q13.35-32.75 9.47-31.2 5.6-29.65 2.5-27.05L2.5-27.05 1.5-28.1Q4.7-31.25 9.9-33.45 15.1-35.65 19.45-35.65L19.45-35.65ZM49.45-25.45Q52.15-25.45 53.95-24 55.75-22.55 55.75-19.7L55.75-19.7Q55.75-17.4 53.27-14.58 50.8-11.75 47.47-9.4 44.15-7.05 41.8-6.1L41.8-6.1Q43.05-4.1 44.65-3.33 46.25-2.55 48.4-2.55L48.4-2.55Q50.8-2.55 53.17-3.78 55.55-5 57.1-6.95L57.1-6.95 57.7-5.9Q55.25-2.75 52.5-1.07 49.75 0.6 45.75 0.6L45.75 0.6Q42.7 0.6 40.3-0.9 37.9-2.4 36.55-4.93 35.2-7.45 35.2-10.4L35.2-10.4Q35.2-14.1 37.2-17.6 39.2-21.1 42.5-23.28 45.8-25.45 49.45-25.45L49.45-25.45ZM46.85-22.3Q44.65-22.3 42.92-20.9 41.2-19.5 40.22-17.3 39.25-15.1 39.25-12.75L39.25-12.75Q39.25-9.65 40.7-7.45L40.7-7.45Q42.8-8.4 45.25-10.33 47.7-12.25 49.4-14.5 51.1-16.75 51.1-18.6L51.1-18.6Q51.1-22.3 46.85-22.3L46.85-22.3ZM63.25-39.85L65.2-29.45 66.95-30.05 68.8-41.7 63.25-39.85ZM68.45-24.8L64-22.95 64 0.6Q64 6.5 62.4 8.58 60.8 10.65 58.25 10.65L58.25 10.65Q55.3 10.65 53.35 8.9L53.35 8.9 49.75 13.35Q51.75 14.7 54 14.7L54 14.7Q57.6 14.7 60.95 12.28 64.3 9.85 66.37 5.85 68.45 1.85 68.45-2.7L68.45-2.7 68.45-24.8ZM88.44-25Q90.89-25 93.07-23.95 95.24-22.9 96.24-20.75L96.24-20.75 92.64-18.8Q91.84-19.95 90.44-20.88 89.04-21.8 87.44-21.8L87.44-21.8Q84.89-21.8 82.99-20.48 81.09-19.15 80.09-16.9 79.09-14.65 79.09-11.9L79.09-11.9Q79.09-7.95 80.44-5.48 81.79-3 84.69-3L84.69-3Q88.79-3 90.34-6.3 91.89-9.6 91.89-13.5L91.89-13.5 91.89-15.75 96.29-17.6 96.29-4.45Q96.29-3.8 96.64-3.2 96.99-2.6 97.69-2.6L97.69-2.6Q99.14-2.6 100.34-4.6L100.34-4.6 101.09-3.8Q100.49-2.1 98.99-0.93 97.49 0.25 95.99 0.25L95.99 0.25Q93.84 0.25 92.82-1.35 91.79-2.95 91.79-5.6L91.79-5.6 91.69-5.6Q90.44-2.95 88.32-1.18 86.19 0.6 83.84 0.6L83.84 0.6Q79.59 0.6 77.42-2.33 75.24-5.25 75.24-10.15L75.24-10.15Q75.24-14.05 76.99-17.48 78.74-20.9 81.77-22.95 84.79-25 88.44-25L88.44-25ZM123.19-25.45Q125.19-25.45 125.79-23.98 126.39-22.5 126.39-19.9L126.39-19.9 126.39-18.35 126.39-4.2Q126.39-3.65 126.74-3.08 127.09-2.5 127.74-2.5L127.74-2.5Q128.59-2.5 129.19-3.05 129.79-3.6 130.39-4.45L130.39-4.45 131.14-3.7Q130.39-2.1 128.89-0.93 127.39 0.25 126.04 0.25L126.04 0.25Q124.04 0.25 122.94-1 121.84-2.25 121.84-4.8L121.84-4.8 121.84-18.05Q121.84-18.8 121.69-19.3 121.54-19.8 120.94-19.8L120.94-19.8Q118.89-19.8 116.74-15.85 114.59-11.9 113.07-7.03 111.54-2.15 111.54-0.6L111.54-0.6 107.19 0.7 107.19-20.7Q107.19-21.4 106.82-21.98 106.44-22.55 105.74-22.55L105.74-22.55Q104.54-22.55 103.14-20.4L103.14-20.4 102.39-21.2Q103.04-23 104.54-24.23 106.04-25.45 107.54-25.45L107.54-25.45Q109.64-25.45 110.67-24.45 111.69-23.45 111.69-21.7L111.69-21.7 111.69-8.55 111.89-8.55Q113.24-13 114.49-16.3 115.74-19.6 117.99-22.53 120.24-25.45 123.19-25.45L123.19-25.45ZM147.59-25Q150.04-25 152.21-23.95 154.39-22.9 155.39-20.75L155.39-20.75 151.79-18.8Q150.99-19.95 149.59-20.88 148.19-21.8 146.59-21.8L146.59-21.8Q144.04-21.8 142.14-20.48 140.24-19.15 139.24-16.9 138.24-14.65 138.24-11.9L138.24-11.9Q138.24-7.95 139.59-5.48 140.94-3 143.84-3L143.84-3Q147.94-3 149.49-6.3 151.04-9.6 151.04-13.5L151.04-13.5 151.04-15.75 155.44-17.6 155.44-4.45Q155.44-3.8 155.79-3.2 156.14-2.6 156.84-2.6L156.84-2.6Q158.29-2.6 159.49-4.6L159.49-4.6 160.24-3.8Q159.64-2.1 158.14-0.93 156.64 0.25 155.14 0.25L155.14 0.25Q152.99 0.25 151.96-1.35 150.94-2.95 150.94-5.6L150.94-5.6 150.84-5.6Q149.59-2.95 147.46-1.18 145.34 0.6 142.99 0.6L142.99 0.6Q138.74 0.6 136.56-2.33 134.39-5.25 134.39-10.15L134.39-10.15Q134.39-14.05 136.14-17.48 137.89-20.9 140.91-22.95 143.94-25 147.59-25L147.59-25Z" opacity="1" transform="matrix(1,0,0,1,0,0)" fill="black" class="wordmark-text-0" id="SvgjsPath1416" stroke-width="5" stroke="black" stroke-linejoin="round"></path></svg></g></svg></g></svg></g></svg></g></svg></g></svg></g></svg></g></mask><g mask="url(#79bcacbf-7fc0-4a59-a81f-a43317828415)"><g><path d="M216.998 0c27.24 0 48.01 7.673 62.311 23.018 14.301 15.3 21.451 36.002 21.451 62.106v0c0 28.829-9.012 55.319-27.035 79.472-18.069 24.198-41.336 43.561-69.802 58.088-28.511 14.528-57.635 22.7-87.371 24.516v0-188.635l31.666-11.577v181.825c22.473-5.902 42.448-15.504 59.927-28.806 17.479-13.257 31.167-29.305 41.064-48.146 9.852-18.841 14.778-39.157 14.777-60.949v0c0-12.485-2.156-24.062-6.469-34.73-4.313-10.669-11.055-19.408-20.225-26.218-9.216-6.81-20.861-10.215-34.935-10.215v0c-17.933 0-35.707 3.518-53.322 10.555-17.57 7.037-33.391 16.457-47.465 28.261v0l-6.81-7.15c14.528-14.301 33.596-26.445 57.203-36.433 23.608-9.988 45.286-14.982 65.035-14.982z" fill="#000000" fill-rule="nonzero" stroke="none" stroke-width="1" stroke-linecap="butt" stroke-linejoin="miter" stroke-miterlimit="10" stroke-dasharray="" stroke-dashoffset="0" font-family="none" font-weight="none" font-size="none" text-anchor="none" style="mix-blend-mode: normal" data-fill-palette-color="tertiary"></path></g></g><g transform="matrix(1,0,0,1,0,49.44754809160304)"><svg viewBox="0 0 395.52 148.3049038167939" height="148.3049038167939" width="395.52"><g><svg viewBox="0 0 395.52 148.3049038167939" height="148.3049038167939" width="395.52"><g><svg viewBox="0 0 395.52 148.3049038167939" height="148.3049038167939" width="395.52"><g><svg viewBox="0 0 395.52 148.3049038167939" height="148.3049038167939" width="395.52"><g id="textblocktransform"><svg viewBox="0 0 395.52 148.3049038167939" height="148.3049038167939" width="395.52" id="textblock"><g><svg viewBox="0 0 395.52 148.3049038167939" height="148.3049038167939" width="395.52"><g transform="matrix(1,0,0,1,0,0)"><svg width="395.52" viewBox="-1.5 -44.7 164.74 62.400000000000006" height="148.3049038167939" data-palette-color="#f3f3f3"><path d="M19.45-35.65Q25.45-35.65 28.6-32.27 31.75-28.9 31.75-23.15L31.75-23.15Q31.75-16.8 27.78-11.48 23.8-6.15 17.53-2.95 11.25 0.25 4.7 0.65L4.7 0.65 4.7-27.05 9.35-28.75 9.35-2.05Q14.3-3.35 18.15-6.28 22-9.2 24.18-13.35 26.35-17.5 26.35-22.3L26.35-22.3Q26.35-25.05 25.4-27.4 24.45-29.75 22.43-31.25 20.4-32.75 17.3-32.75L17.3-32.75Q13.35-32.75 9.47-31.2 5.6-29.65 2.5-27.05L2.5-27.05 1.5-28.1Q4.7-31.25 9.9-33.45 15.1-35.65 19.45-35.65L19.45-35.65ZM49.45-25.45Q52.15-25.45 53.95-24 55.75-22.55 55.75-19.7L55.75-19.7Q55.75-17.4 53.27-14.58 50.8-11.75 47.47-9.4 44.15-7.05 41.8-6.1L41.8-6.1Q43.05-4.1 44.65-3.33 46.25-2.55 48.4-2.55L48.4-2.55Q50.8-2.55 53.17-3.78 55.55-5 57.1-6.95L57.1-6.95 57.7-5.9Q55.25-2.75 52.5-1.07 49.75 0.6 45.75 0.6L45.75 0.6Q42.7 0.6 40.3-0.9 37.9-2.4 36.55-4.93 35.2-7.45 35.2-10.4L35.2-10.4Q35.2-14.1 37.2-17.6 39.2-21.1 42.5-23.28 45.8-25.45 49.45-25.45L49.45-25.45ZM46.85-22.3Q44.65-22.3 42.92-20.9 41.2-19.5 40.22-17.3 39.25-15.1 39.25-12.75L39.25-12.75Q39.25-9.65 40.7-7.45L40.7-7.45Q42.8-8.4 45.25-10.33 47.7-12.25 49.4-14.5 51.1-16.75 51.1-18.6L51.1-18.6Q51.1-22.3 46.85-22.3L46.85-22.3ZM63.25-39.85L65.2-29.45 66.95-30.05 68.8-41.7 63.25-39.85ZM68.45-24.8L64-22.95 64 0.6Q64 6.5 62.4 8.58 60.8 10.65 58.25 10.65L58.25 10.65Q55.3 10.65 53.35 8.9L53.35 8.9 49.75 13.35Q51.75 14.7 54 14.7L54 14.7Q57.6 14.7 60.95 12.28 64.3 9.85 66.37 5.85 68.45 1.85 68.45-2.7L68.45-2.7 68.45-24.8ZM88.44-25Q90.89-25 93.07-23.95 95.24-22.9 96.24-20.75L96.24-20.75 92.64-18.8Q91.84-19.95 90.44-20.88 89.04-21.8 87.44-21.8L87.44-21.8Q84.89-21.8 82.99-20.48 81.09-19.15 80.09-16.9 79.09-14.65 79.09-11.9L79.09-11.9Q79.09-7.95 80.44-5.48 81.79-3 84.69-3L84.69-3Q88.79-3 90.34-6.3 91.89-9.6 91.89-13.5L91.89-13.5 91.89-15.75 96.29-17.6 96.29-4.45Q96.29-3.8 96.64-3.2 96.99-2.6 97.69-2.6L97.69-2.6Q99.14-2.6 100.34-4.6L100.34-4.6 101.09-3.8Q100.49-2.1 98.99-0.93 97.49 0.25 95.99 0.25L95.99 0.25Q93.84 0.25 92.82-1.35 91.79-2.95 91.79-5.6L91.79-5.6 91.69-5.6Q90.44-2.95 88.32-1.18 86.19 0.6 83.84 0.6L83.84 0.6Q79.59 0.6 77.42-2.33 75.24-5.25 75.24-10.15L75.24-10.15Q75.24-14.05 76.99-17.48 78.74-20.9 81.77-22.95 84.79-25 88.44-25L88.44-25ZM123.19-25.45Q125.19-25.45 125.79-23.98 126.39-22.5 126.39-19.9L126.39-19.9 126.39-18.35 126.39-4.2Q126.39-3.65 126.74-3.08 127.09-2.5 127.74-2.5L127.74-2.5Q128.59-2.5 129.19-3.05 129.79-3.6 130.39-4.45L130.39-4.45 131.14-3.7Q130.39-2.1 128.89-0.93 127.39 0.25 126.04 0.25L126.04 0.25Q124.04 0.25 122.94-1 121.84-2.25 121.84-4.8L121.84-4.8 121.84-18.05Q121.84-18.8 121.69-19.3 121.54-19.8 120.94-19.8L120.94-19.8Q118.89-19.8 116.74-15.85 114.59-11.9 113.07-7.03 111.54-2.15 111.54-0.6L111.54-0.6 107.19 0.7 107.19-20.7Q107.19-21.4 106.82-21.98 106.44-22.55 105.74-22.55L105.74-22.55Q104.54-22.55 103.14-20.4L103.14-20.4 102.39-21.2Q103.04-23 104.54-24.23 106.04-25.45 107.54-25.45L107.54-25.45Q109.64-25.45 110.67-24.45 111.69-23.45 111.69-21.7L111.69-21.7 111.69-8.55 111.89-8.55Q113.24-13 114.49-16.3 115.74-19.6 117.99-22.53 120.24-25.45 123.19-25.45L123.19-25.45ZM147.59-25Q150.04-25 152.21-23.95 154.39-22.9 155.39-20.75L155.39-20.75 151.79-18.8Q150.99-19.95 149.59-20.88 148.19-21.8 146.59-21.8L146.59-21.8Q144.04-21.8 142.14-20.48 140.24-19.15 139.24-16.9 138.24-14.65 138.24-11.9L138.24-11.9Q138.24-7.95 139.59-5.48 140.94-3 143.84-3L143.84-3Q147.94-3 149.49-6.3 151.04-9.6 151.04-13.5L151.04-13.5 151.04-15.75 155.44-17.6 155.44-4.45Q155.44-3.8 155.79-3.2 156.14-2.6 156.84-2.6L156.84-2.6Q158.29-2.6 159.49-4.6L159.49-4.6 160.24-3.8Q159.64-2.1 158.14-0.93 156.64 0.25 155.14 0.25L155.14 0.25Q152.99 0.25 151.96-1.35 150.94-2.95 150.94-5.6L150.94-5.6 150.84-5.6Q149.59-2.95 147.46-1.18 145.34 0.6 142.99 0.6L142.99 0.6Q138.74 0.6 136.56-2.33 134.39-5.25 134.39-10.15L134.39-10.15Q134.39-14.05 136.14-17.48 137.89-20.9 140.91-22.95 143.94-25 147.59-25L147.59-25Z" opacity="1" transform="matrix(1,0,0,1,0,0)" fill="#000000" class="wordmark-text-0" data-fill-palette-color="primary" id="text-0"></path></svg></g></svg></g></svg></g></svg></g></svg></g></svg></g></svg></g></svg></g><defs></defs></svg><rect width="395.52" height="247.2" fill="none" stroke="none" visibility="hidden"></rect></g></svg></g></svg>